<svg width="120" height="31" viewBox="0 0 120 31" fill="none" xmlns="http://www.w3.org/2000/svg">
<path d="M11.4531 7.09375H15.5312V23.4375C15.5312 24.9792 15.1875 26.2865 14.5 27.3594C13.8229 28.4427 12.875 29.2604 11.6562 29.8125C10.4375 30.375 9.02083 30.6562 7.40625 30.6562C6.69792 30.6562 5.94792 30.5625 5.15625 30.375C4.375 30.1875 3.625 29.8958 2.90625 29.5C2.19792 29.1042 1.60417 28.6042 1.125 28L3.10938 25.3438C3.63021 25.9479 4.23438 26.4167 4.92188 26.75C5.60938 27.0938 6.36979 27.2656 7.20312 27.2656C8.01562 27.2656 8.70312 27.1146 9.26562 26.8125C9.82812 26.5208 10.2604 26.0885 10.5625 25.5156C10.8646 24.9531 11.0156 24.2708 11.0156 23.4688V11L11.4531 7.09375ZM0.078125 15.75V15.4219C0.078125 14.1302 0.234375 12.9583 0.546875 11.9062C0.869792 10.8438 1.32292 9.93229 1.90625 9.17188C2.5 8.41146 3.21875 7.82292 4.0625 7.40625C4.90625 6.98958 5.85938 6.78125 6.92188 6.78125C8.04688 6.78125 8.98958 6.98958 9.75 7.40625C10.5104 7.82292 11.1354 8.41667 11.625 9.1875C12.1146 9.94792 12.4948 10.849 12.7656 11.8906C13.0469 12.9219 13.2656 14.0521 13.4219 15.2812V16C13.2656 17.1771 13.0312 18.2708 12.7188 19.2812C12.4062 20.2917 11.9948 21.1771 11.4844 21.9375C10.974 22.6875 10.3385 23.2708 9.57812 23.6875C8.82812 24.1042 7.93229 24.3125 6.89062 24.3125C5.84896 24.3125 4.90625 24.099 4.0625 23.6719C3.22917 23.2448 2.51562 22.6458 1.92188 21.875C1.32812 21.1042 0.869792 20.1979 0.546875 19.1562C0.234375 18.1146 0.078125 16.9792 0.078125 15.75ZM4.57812 15.4219V15.75C4.57812 16.4479 4.64583 17.099 4.78125 17.7031C4.91667 18.3073 5.125 18.8438 5.40625 19.3125C5.69792 19.7708 6.05729 20.1302 6.48438 20.3906C6.92188 20.6406 7.4375 20.7656 8.03125 20.7656C8.85417 20.7656 9.52604 20.5938 10.0469 20.25C10.5677 19.8958 10.9583 19.4115 11.2188 18.7969C11.4792 18.1823 11.6302 17.474 11.6719 16.6719V14.625C11.651 13.9688 11.5625 13.3802 11.4062 12.8594C11.25 12.3281 11.0312 11.875 10.75 11.5C10.4688 11.125 10.1042 10.8333 9.65625 10.625C9.20833 10.4167 8.67708 10.3125 8.0625 10.3125C7.46875 10.3125 6.95312 10.4479 6.51562 10.7188C6.08854 10.9792 5.72917 11.3385 5.4375 11.7969C5.15625 12.2552 4.94271 12.7969 4.79688 13.4219C4.65104 14.0365 4.57812 14.7031 4.57812 15.4219ZM23.7812 7.09375V24H19.2656V7.09375H23.7812ZM18.9844 2.6875C18.9844 2.03125 19.2135 1.48958 19.6719 1.0625C20.1302 0.635417 20.7448 0.421875 21.5156 0.421875C22.276 0.421875 22.8854 0.635417 23.3438 1.0625C23.8125 1.48958 24.0469 2.03125 24.0469 2.6875C24.0469 3.34375 23.8125 3.88542 23.3438 4.3125C22.8854 4.73958 22.276 4.95312 21.5156 4.95312C20.7448 4.95312 20.1302 4.73958 19.6719 4.3125C19.2135 3.88542 18.9844 3.34375 18.9844 2.6875ZM35.7812 7.09375V10.2812H25.9375V7.09375H35.7812ZM28.375 2.92188H32.875V18.9062C32.875 19.3958 32.9375 19.7708 33.0625 20.0312C33.1979 20.2917 33.3958 20.474 33.6562 20.5781C33.9167 20.6719 34.2448 20.7188 34.6406 20.7188C34.9219 20.7188 35.1719 20.7083 35.3906 20.6875C35.6198 20.6562 35.8125 20.625 35.9688 20.5938L35.9844 23.9062C35.599 24.0312 35.1823 24.1302 34.7344 24.2031C34.2865 24.276 33.7917 24.3125 33.25 24.3125C32.2604 24.3125 31.3958 24.151 30.6562 23.8281C29.9271 23.4948 29.3646 22.9635 28.9688 22.2344C28.5729 21.5052 28.375 20.5469 28.375 19.3594V2.92188ZM38.5625 21.8281C38.5625 21.1615 38.7917 20.6042 39.25 20.1562C39.7188 19.7083 40.3385 19.4844 41.1094 19.4844C41.8802 19.4844 42.4948 19.7083 42.9531 20.1562C43.4219 20.6042 43.6562 21.1615 43.6562 21.8281C43.6562 22.4948 43.4219 23.0521 42.9531 23.5C42.4948 23.9479 41.8802 24.1719 41.1094 24.1719C40.3385 24.1719 39.7188 23.9479 39.25 23.5C38.7917 23.0521 38.5625 22.4948 38.5625 21.8281ZM52.0312 10.7031V24H47.5312V7.09375H51.75L52.0312 10.7031ZM51.375 14.9531H50.1562C50.1562 13.7031 50.3177 12.5781 50.6406 11.5781C50.9635 10.5677 51.4167 9.70833 52 9C52.5833 8.28125 53.276 7.73438 54.0781 7.35938C54.8906 6.97396 55.7969 6.78125 56.7969 6.78125C57.5885 6.78125 58.3125 6.89583 58.9688 7.125C59.625 7.35417 60.1875 7.71875 60.6562 8.21875C61.1354 8.71875 61.5 9.38021 61.75 10.2031C62.0104 11.026 62.1406 12.0312 62.1406 13.2188V24H57.6094V13.2031C57.6094 12.4531 57.5052 11.8698 57.2969 11.4531C57.0885 11.0365 56.7812 10.7448 56.375 10.5781C55.9792 10.401 55.4896 10.3125 54.9062 10.3125C54.3021 10.3125 53.776 10.4323 53.3281 10.6719C52.8906 10.9115 52.526 11.2448 52.2344 11.6719C51.9531 12.0885 51.7396 12.5781 51.5938 13.1406C51.4479 13.7031 51.375 14.3073 51.375 14.9531ZM73.3438 24.3125C72.0312 24.3125 70.8542 24.1042 69.8125 23.6875C68.7708 23.2604 67.8854 22.6719 67.1562 21.9219C66.4375 21.1719 65.8854 20.3021 65.5 19.3125C65.1146 18.3125 64.9219 17.25 64.9219 16.125V15.5C64.9219 14.2188 65.1042 13.0469 65.4688 11.9844C65.8333 10.9219 66.3542 10 67.0312 9.21875C67.7188 8.4375 68.5521 7.83854 69.5312 7.42188C70.5104 6.99479 71.6146 6.78125 72.8438 6.78125C74.0417 6.78125 75.1042 6.97917 76.0312 7.375C76.9583 7.77083 77.7344 8.33333 78.3594 9.0625C78.9948 9.79167 79.474 10.6667 79.7969 11.6875C80.1198 12.6979 80.2812 13.8229 80.2812 15.0625V16.9375H66.8438V13.9375H75.8594V13.5938C75.8594 12.9688 75.7448 12.4115 75.5156 11.9219C75.2969 11.4219 74.9635 11.026 74.5156 10.7344C74.0677 10.4427 73.4948 10.2969 72.7969 10.2969C72.2031 10.2969 71.6927 10.4271 71.2656 10.6875C70.8385 10.9479 70.4896 11.3125 70.2188 11.7812C69.9583 12.25 69.7604 12.8021 69.625 13.4375C69.5 14.0625 69.4375 14.75 69.4375 15.5V16.125C69.4375 16.8021 69.5312 17.4271 69.7188 18C69.9167 18.5729 70.1927 19.0677 70.5469 19.4844C70.9115 19.901 71.349 20.224 71.8594 20.4531C72.3802 20.6823 72.9688 20.7969 73.625 20.7969C74.4375 20.7969 75.1927 20.6406 75.8906 20.3281C76.599 20.0052 77.2083 19.5208 77.7188 18.875L79.9062 21.25C79.5521 21.7604 79.0677 22.25 78.4531 22.7188C77.849 23.1875 77.1198 23.5729 76.2656 23.875C75.4115 24.1667 74.4375 24.3125 73.3438 24.3125ZM87.6719 19.625L91.1875 7.09375H94.0469L93.125 12.0156L89.6094 24H87.2188L87.6719 19.625ZM85.8906 7.09375L88.4062 19.6094L88.6406 24H85.8281L81.5469 7.09375H85.8906ZM97.2656 19.4062L99.7188 7.09375H104.078L99.7969 24H97L97.2656 19.4062ZM94.4375 7.09375L97.9375 19.5312L98.4219 24H96.0156L92.5 12.0312L91.6094 7.09375H94.4375ZM115.484 19.3281C115.484 19.0052 115.391 18.7135 115.203 18.4531C115.016 18.1927 114.667 17.9531 114.156 17.7344C113.656 17.5052 112.932 17.2969 111.984 17.1094C111.13 16.9219 110.333 16.6875 109.594 16.4062C108.865 16.1146 108.229 15.7656 107.688 15.3594C107.156 14.9531 106.74 14.474 106.438 13.9219C106.135 13.3594 105.984 12.7188 105.984 12C105.984 11.2917 106.135 10.625 106.438 10C106.75 9.375 107.193 8.82292 107.766 8.34375C108.349 7.85417 109.057 7.47396 109.891 7.20312C110.734 6.92188 111.682 6.78125 112.734 6.78125C114.203 6.78125 115.464 7.01562 116.516 7.48438C117.578 7.95312 118.391 8.59896 118.953 9.42188C119.526 10.2344 119.812 11.1615 119.812 12.2031H115.312C115.312 11.7656 115.219 11.375 115.031 11.0312C114.854 10.6771 114.573 10.401 114.188 10.2031C113.812 9.99479 113.323 9.89062 112.719 9.89062C112.219 9.89062 111.786 9.97917 111.422 10.1562C111.057 10.3229 110.776 10.5521 110.578 10.8438C110.391 11.125 110.297 11.4375 110.297 11.7812C110.297 12.0417 110.349 12.276 110.453 12.4844C110.568 12.6823 110.75 12.8646 111 13.0312C111.25 13.1979 111.573 13.3542 111.969 13.5C112.375 13.6354 112.875 13.7604 113.469 13.875C114.688 14.125 115.776 14.4531 116.734 14.8594C117.693 15.2552 118.453 15.7969 119.016 16.4844C119.578 17.1615 119.859 18.0521 119.859 19.1562C119.859 19.9062 119.693 20.5938 119.359 21.2188C119.026 21.8438 118.547 22.3906 117.922 22.8594C117.297 23.3177 116.547 23.6771 115.672 23.9375C114.807 24.1875 113.833 24.3125 112.75 24.3125C111.177 24.3125 109.844 24.0312 108.75 23.4688C107.667 22.9062 106.844 22.1927 106.281 21.3281C105.729 20.4531 105.453 19.5573 105.453 18.6406H109.719C109.74 19.2552 109.896 19.75 110.188 20.125C110.49 20.5 110.87 20.7708 111.328 20.9375C111.797 21.1042 112.302 21.1875 112.844 21.1875C113.427 21.1875 113.911 21.1094 114.297 20.9531C114.682 20.7865 114.974 20.5677 115.172 20.2969C115.38 20.0156 115.484 19.6927 115.484 19.3281Z" fill="#2D3748"/>
</svg>
